<svg xmlns="http://www.w3.org/2000/svg" version="1.1" xmlns:xlink="http://www.w3.org/1999/xlink" xmlns:svgjs="http://svgjs.dev/svgjs" width="1500" height="867" viewBox="0 0 1500 867"><g transform="matrix(1,0,0,1,-0.9090909090911055,-0.08227423159684122)"><svg viewBox="0 0 396 229" data-background-color="#561f01" preserveAspectRatio="xMidYMid meet" height="867" width="1500" xmlns="http://www.w3.org/2000/svg" xmlns:xlink="http://www.w3.org/1999/xlink"><g id="tight-bounds" transform="matrix(1,0,0,1,0.24000000000003752,0.02173102541600258)"><svg viewBox="0 0 395.5199999999999 228.956537949168" height="228.956537949168" width="395.5199999999999"><g><svg viewBox="0 0 395.5199999999999 228.956537949168" height="228.956537949168" width="395.5199999999999"><g transform="matrix(1,0,0,1,0,137.40300009719058)"><svg viewBox="0 0 395.5199999999999 91.55353785197741" height="91.55353785197741" width="395.5199999999999"><g id="textblocktransform"><svg viewBox="0 0 395.5199999999999 91.55353785197741" height="91.55353785197741" width="395.5199999999999" id="textblock"><g><svg viewBox="0 0 395.5199999999999 46.06995537775041" height="46.06995537775041" width="395.5199999999999"><g transform="matrix(1,0,0,1,0,0)"><svg width="395.5199999999999" viewBox="0.15 -37.5 324.92 37.85" height="46.06995537775041" data-palette-color="#ebe6c8"><path d="M14.1 0L0.15-35 6.5-35 17.3-6.2 28.2-35 34.35-35 20.2 0 14.1 0ZM38.75 0L38.75-26.55 44.45-26.55 44.45 0 38.75 0ZM41.6-37.5L41.6-37.5Q43.05-37.5 44-36.55 44.95-35.6 44.95-34.15L44.95-34.15Q44.95-32.75 44-31.78 43.05-30.8 41.6-30.8L41.6-30.8Q40.2-30.8 39.22-31.78 38.25-32.75 38.25-34.15L38.25-34.15Q38.25-35.6 39.22-36.55 40.2-37.5 41.6-37.5ZM70.2-24.15L68.1-20.1Q66.35-21.15 64.27-21.78 62.2-22.4 60.45-22.4L60.45-22.4Q58.75-22.4 57.65-21.75 56.55-21.1 56.55-19.6L56.55-19.6Q56.55-18.35 57.57-17.63 58.6-16.9 60.2-16.4 61.8-15.9 63.6-15.35 65.4-14.8 67.02-13.93 68.65-13.05 69.65-11.55 70.65-10.05 70.65-7.6L70.65-7.6Q70.65-4.9 69.22-3.18 67.8-1.45 65.47-0.63 63.15 0.2 60.45 0.2L60.45 0.2Q57.55 0.2 54.65-0.75 51.75-1.7 49.75-3.5L49.75-3.5 51.8-7.4Q53.55-5.85 56.05-4.98 58.55-4.1 60.7-4.1L60.7-4.1Q61.95-4.1 62.92-4.42 63.9-4.75 64.47-5.4 65.05-6.05 65.05-7.1L65.05-7.1Q65.05-8.5 64.05-9.3 63.05-10.1 61.45-10.63 59.85-11.15 58.05-11.68 56.25-12.2 54.67-13.05 53.1-13.9 52.1-15.35 51.1-16.8 51.1-19.2L51.1-19.2Q51.1-21.9 52.5-23.58 53.9-25.25 56.12-26.03 58.35-26.8 60.9-26.8L60.9-26.8Q63.4-26.8 65.9-26.1 68.4-25.4 70.2-24.15L70.2-24.15ZM96.44 0L96.44-15Q96.44-18.1 94.74-19.88 93.04-21.65 90.04-21.65L90.04-21.65Q86.49-21.6 84.47-19.15 82.44-16.7 82.44-13.05L82.44-13.05 80.84-13.05Q80.84-18 82.24-21 83.64-24 86.22-25.38 88.79-26.75 92.29-26.75L92.29-26.75Q95.39-26.75 97.62-25.5 99.84-24.25 101.02-21.98 102.19-19.7 102.19-16.5L102.19-16.5 102.19 0 96.44 0ZM76.69 0L76.69-37.1 82.44-37.1 82.44 0 76.69 0ZM126.54-11.85L118.59-11.85Q115.79-11.85 114.44-11 113.09-10.15 113.09-8.2L113.09-8.2Q113.09-6.35 114.47-5.25 115.84-4.15 118.24-4.15L118.24-4.15Q120.39-4.15 122.09-4.9 123.79-5.65 124.79-6.93 125.79-8.2 125.84-9.8L125.84-9.8 126.94-4.95Q125.69-2.35 123.14-1.05 120.59 0.25 117.04 0.25L117.04 0.25Q114.19 0.25 112.09-0.85 109.99-1.95 108.84-3.83 107.69-5.7 107.69-8L107.69-8Q107.69-11.6 110.32-13.75 112.94-15.9 117.74-15.95L117.74-15.95 126.54-15.95 126.54-11.85ZM125.84 0L125.79-16.85Q125.79-19.45 124.19-20.9 122.59-22.35 119.44-22.35L119.44-22.35Q117.54-22.35 115.57-21.65 113.59-20.95 111.59-19.6L111.59-19.6 109.24-23.3Q111.09-24.45 112.74-25.2 114.39-25.95 116.27-26.35 118.14-26.75 120.69-26.75L120.69-26.75Q125.84-26.75 128.62-24.28 131.39-21.8 131.44-17.45L131.44-17.45 131.49 0 125.84 0ZM139.44 0L139.44-37.1 145.19-37.1 145.19 0 139.44 0ZM191.53-31.85L189.08-26.9Q187.18-28.1 185.33-28.8 183.48-29.5 181.83-29.8 180.18-30.1 178.83-30.1L178.83-30.1Q176.23-30.1 174.68-29.1 173.13-28.1 173.13-26.2L173.13-26.2Q173.13-24.5 174.16-23.43 175.18-22.35 176.86-21.68 178.53-21 180.56-20.4 182.58-19.8 184.58-19.07 186.58-18.35 188.28-17.2 189.98-16.05 190.98-14.28 191.98-12.5 191.98-9.8L191.98-9.8Q191.98-6.7 190.28-4.42 188.58-2.15 185.61-0.9 182.63 0.35 178.78 0.35L178.78 0.35Q176.03 0.35 173.43-0.38 170.83-1.1 168.56-2.35 166.28-3.6 164.48-5.25L164.48-5.25 167.03-10.1Q168.83-8.45 170.86-7.3 172.88-6.15 174.96-5.55 177.03-4.95 178.88-4.95L178.88-4.95Q181.98-4.95 183.71-6.15 185.43-7.35 185.43-9.5L185.43-9.5Q185.43-11.25 184.41-12.33 183.38-13.4 181.71-14.1 180.03-14.8 178.01-15.35 175.98-15.9 173.96-16.63 171.93-17.35 170.26-18.45 168.58-19.55 167.56-21.3 166.53-23.05 166.53-25.75L166.53-25.75Q166.53-28.7 168.13-30.88 169.73-33.05 172.61-34.25 175.48-35.45 179.28-35.45L179.28-35.45Q182.68-35.45 185.88-34.45 189.08-33.45 191.53-31.85L191.53-31.85ZM205.28-32.85L205.28-8.4Q205.28-6.25 206.03-5.48 206.78-4.7 208.13-4.7L208.13-4.7Q209.03-4.7 210.01-5 210.98-5.3 212.13-5.9L212.13-5.9 213.58-1.75Q212.03-0.8 210.38-0.28 208.73 0.25 207.03 0.25L207.03 0.25Q205.03 0.25 203.33-0.53 201.63-1.3 200.61-3 199.58-4.7 199.58-7.4L199.58-7.4 199.58-32.85 205.28-32.85ZM195.83-21.5L195.83-25.6 213.13-25.6 213.13-21.5 195.83-21.5ZM223.78-26.55L223.78-11.55Q223.78-8.45 225.43-6.68 227.08-4.9 229.98-4.9L229.98-4.9Q233.43-5 235.35-7.45 237.28-9.9 237.28-13.5L237.28-13.5 238.83-13.5Q238.83-8.6 237.48-5.6 236.13-2.6 233.65-1.23 231.18 0.15 227.78 0.2L227.78 0.2Q224.73 0.2 222.55-1.05 220.38-2.3 219.2-4.6 218.03-6.9 218.03-10.05L218.03-10.05 218.03-26.55 223.78-26.55ZM237.28 0L237.28-26.55 243.03-26.55 243.03 0 237.28 0ZM261.68-26.8L261.68-26.8Q265.38-26.8 267.95-25.18 270.53-23.55 271.9-20.53 273.28-17.5 273.23-13.3L273.23-13.3Q273.28-9.1 271.93-6.05 270.58-3 268-1.38 265.43 0.25 261.78 0.25L261.78 0.25Q257.98 0.25 255.1-1.48 252.23-3.2 250.63-6.28 249.03-9.35 249.03-13.35L249.03-13.35Q249.03-17.35 250.63-20.38 252.23-23.4 255.08-25.1 257.93-26.8 261.68-26.8ZM262.98-22.15L262.98-22.15Q260.58-22.15 258.73-21 256.88-19.85 255.85-17.82 254.83-15.8 254.78-13.2L254.78-13.2Q254.83-10.6 255.85-8.6 256.88-6.6 258.73-5.45 260.58-4.3 262.98-4.3L262.98-4.3Q265.38-4.3 267.23-5.45 269.08-6.6 270.1-8.6 271.13-10.6 271.13-13.2L271.13-13.2Q271.13-15.85 270.1-17.85 269.08-19.85 267.23-21 265.38-22.15 262.98-22.15ZM271.13 0L271.13-37.1 276.88-37.1 276.88 0 271.13 0ZM285.62 0L285.62-26.55 291.32-26.55 291.32 0 285.62 0ZM288.47-37.5L288.47-37.5Q289.92-37.5 290.87-36.55 291.82-35.6 291.82-34.15L291.82-34.15Q291.82-32.75 290.87-31.78 289.92-30.8 288.47-30.8L288.47-30.8Q287.07-30.8 286.1-31.78 285.12-32.75 285.12-34.15L285.12-34.15Q285.12-35.6 286.1-36.55 287.07-37.5 288.47-37.5ZM311.22-26.75L311.22-26.75Q315.32-26.75 318.45-25.05 321.57-23.35 323.32-20.33 325.07-17.3 325.07-13.3L325.07-13.3Q325.07-9.3 323.32-6.25 321.57-3.2 318.45-1.5 315.32 0.2 311.22 0.2L311.22 0.2Q307.12 0.2 303.97-1.5 300.82-3.2 299.07-6.25 297.32-9.3 297.32-13.3L297.32-13.3Q297.32-17.3 299.07-20.33 300.82-23.35 303.97-25.05 307.12-26.75 311.22-26.75ZM311.22-22.1L311.22-22.1Q308.82-22.1 306.97-20.98 305.12-19.85 304.1-17.85 303.07-15.85 303.07-13.25L303.07-13.25Q303.07-10.6 304.1-8.6 305.12-6.6 306.97-5.48 308.82-4.35 311.22-4.35L311.22-4.35Q313.62-4.35 315.45-5.48 317.27-6.6 318.3-8.6 319.32-10.6 319.32-13.25L319.32-13.25Q319.32-15.85 318.3-17.85 317.27-19.85 315.45-20.98 313.62-22.1 311.22-22.1Z" opacity="1" transform="matrix(1,0,0,1,0,0)" fill="#ebe6c8" class="wordmark-text-0" data-fill-palette-color="primary" id="text-0"></path></svg></g></svg></g><g transform="matrix(1,0,0,1,0,56.94596616350822)"><svg viewBox="0 0 395.5199999999999 34.6075716884692" height="34.6075716884692" width="395.5199999999999"><g transform="matrix(1,0,0,1,0,0)"><svg width="395.5199999999999" viewBox="-0.1 -39.65 577.08 50.5" height="34.6075716884692" data-palette-color="#ebe6c8"><path d="M24.95 0L18.5 0 16.8-8.1 7.9-8.1 6.25 0-0.1 0 8.6-34.55 16.3-34.55 24.95 0ZM12.35-29.7L8.9-12.9 15.85-12.9 12.35-29.7ZM46.55-13.85Q46.55-13.4 46.4-11.3L46.4-11.3 32.75-11.3Q32.95-7.2 34.17-5.58 35.4-3.95 37.65-3.95L37.65-3.95Q39.2-3.95 40.45-4.48 41.7-5 43.15-6.15L43.15-6.15 45.7-2.65Q42.2 0.75 37.3 0.75L37.3 0.75Q32.1 0.75 29.32-2.85 26.55-6.45 26.55-13L26.55-13Q26.55-19.55 29.2-23.35 31.85-27.15 36.7-27.15L36.7-27.15Q41.35-27.15 43.95-23.78 46.55-20.4 46.55-13.85L46.55-13.85ZM40.55-15.3L40.55-15.65Q40.55-19.4 39.65-21.13 38.75-22.85 36.75-22.85L36.75-22.85Q34.9-22.85 33.92-21.18 32.95-19.5 32.75-15.3L32.75-15.3 40.55-15.3ZM58.2-27.15Q62.9-27.15 66.15-24.05L66.15-24.05 63.8-20.7Q62.4-21.7 61.15-22.2 59.9-22.7 58.6-22.7L58.6-22.7Q57.15-22.7 56.32-21.93 55.5-21.15 55.5-19.8L55.5-19.8Q55.5-18.45 56.42-17.63 57.35-16.8 60.15-15.7L60.15-15.7Q63.6-14.35 65.25-12.5 66.9-10.65 66.9-7.55L66.9-7.55Q66.9-3.7 64.2-1.48 61.5 0.75 57.35 0.75L57.35 0.75Q54.65 0.75 52.37-0.23 50.1-1.2 48.4-2.95L48.4-2.95 51.4-6.25Q54.2-3.8 57.1-3.8L57.1-3.8Q58.75-3.8 59.7-4.67 60.65-5.55 60.65-7.1L60.65-7.1Q60.65-8.25 60.25-8.97 59.85-9.7 58.85-10.33 57.85-10.95 55.85-11.7L55.85-11.7Q52.4-13.05 50.92-14.85 49.45-16.65 49.45-19.45L49.45-19.45Q49.45-22.8 51.82-24.98 54.2-27.15 58.2-27.15L58.2-27.15ZM81.89-5L84.04-1.2Q81.59 0.75 78.29 0.75L78.29 0.75Q74.84 0.75 73.04-1.23 71.24-3.2 71.24-6.6L71.24-6.6 71.24-22 68.14-22 68.14-26.45 71.24-26.45 71.24-32.3 77.39-33.05 77.39-26.45 82.39-26.45 81.79-22 77.39-22 77.39-6.6Q77.39-4.2 79.44-4.2L79.44-4.2Q80.09-4.2 80.59-4.38 81.09-4.55 81.89-5L81.89-5ZM98.94-27.15Q101.79-27.15 103.44-25.1 105.09-23.05 105.09-19.6L105.09-19.6 105.09 0 98.94 0 98.94-18.9Q98.94-20.8 98.42-21.63 97.89-22.45 96.89-22.45L96.89-22.45Q94.79-22.45 92.74-18.5L92.74-18.5 92.74 0 86.59 0 86.59-37 92.74-37.65 92.74-23.3Q93.99-25.25 95.47-26.2 96.94-27.15 98.94-27.15L98.94-27.15ZM129.49-13.85Q129.49-13.4 129.34-11.3L129.34-11.3 115.69-11.3Q115.89-7.2 117.11-5.58 118.34-3.95 120.59-3.95L120.59-3.95Q122.14-3.95 123.39-4.48 124.64-5 126.09-6.15L126.09-6.15 128.64-2.65Q125.14 0.75 120.24 0.75L120.24 0.75Q115.04 0.75 112.26-2.85 109.49-6.45 109.49-13L109.49-13Q109.49-19.55 112.14-23.35 114.79-27.15 119.64-27.15L119.64-27.15Q124.29-27.15 126.89-23.78 129.49-20.4 129.49-13.85L129.49-13.85ZM123.49-15.3L123.49-15.65Q123.49-19.4 122.59-21.13 121.69-22.85 119.69-22.85L119.69-22.85Q117.84-22.85 116.86-21.18 115.89-19.5 115.69-15.3L115.69-15.3 123.49-15.3ZM144.94-5L147.09-1.2Q144.63 0.75 141.34 0.75L141.34 0.75Q137.88 0.75 136.09-1.23 134.28-3.2 134.28-6.6L134.28-6.6 134.28-22 131.19-22 131.19-26.45 134.28-26.45 134.28-32.3 140.44-33.05 140.44-26.45 145.44-26.45 144.84-22 140.44-22 140.44-6.6Q140.44-4.2 142.49-4.2L142.49-4.2Q143.13-4.2 143.63-4.38 144.13-4.55 144.94-5L144.94-5ZM149.63-26.45L155.78-26.45 155.78 0 149.63 0 149.63-26.45ZM152.68-39.65Q154.33-39.65 155.36-38.6 156.38-37.55 156.38-35.9L156.38-35.9Q156.38-34.3 155.36-33.25 154.33-32.2 152.68-32.2L152.68-32.2Q151.03-32.2 150.01-33.25 148.98-34.3 148.98-35.9L148.98-35.9Q148.98-37.55 150.01-38.6 151.03-39.65 152.68-39.65L152.68-39.65ZM170.98-27.15Q173.13-27.15 174.88-26.43 176.63-25.7 178.23-24.15L178.23-24.15 175.58-20.65Q174.48-21.55 173.5-21.98 172.53-22.4 171.38-22.4L171.38-22.4Q169.13-22.4 167.98-20.28 166.83-18.15 166.83-13.1L166.83-13.1Q166.83-8.2 168-6.2 169.18-4.2 171.38-4.2L171.38-4.2Q172.48-4.2 173.38-4.6 174.28-5 175.48-5.85L175.48-5.85 178.23-2.3Q175.03 0.75 171.08 0.75L171.08 0.75Q165.98 0.75 163.16-2.73 160.33-6.2 160.33-13L160.33-13Q160.33-17.4 161.63-20.6 162.93-23.8 165.35-25.48 167.78-27.15 170.98-27.15L170.98-27.15ZM204.08-37.7L210.23-37.05 210.23 0 204.78 0 204.47-3.05Q202.13 0.75 198.43 0.75L198.43 0.75Q194.33 0.75 192.15-2.93 189.97-6.6 189.97-13.2L189.97-13.2Q189.97-17.4 191.1-20.58 192.22-23.75 194.22-25.45 196.22-27.15 198.83-27.15L198.83-27.15Q202.03-27.15 204.08-24.5L204.08-24.5 204.08-37.7ZM200.18-3.9Q201.33-3.9 202.25-4.7 203.18-5.5 204.08-7L204.08-7 204.08-19.85Q202.47-22.55 200.43-22.55L200.43-22.55Q196.38-22.55 196.38-13.25L196.38-13.25Q196.38-8.2 197.38-6.05 198.38-3.9 200.18-3.9L200.18-3.9ZM234.77-13.85Q234.77-13.4 234.62-11.3L234.62-11.3 220.97-11.3Q221.17-7.2 222.4-5.58 223.62-3.95 225.87-3.95L225.87-3.95Q227.42-3.95 228.67-4.48 229.92-5 231.37-6.15L231.37-6.15 233.92-2.65Q230.42 0.75 225.52 0.75L225.52 0.75Q220.32 0.75 217.55-2.85 214.77-6.45 214.77-13L214.77-13Q214.77-19.55 217.42-23.35 220.07-27.15 224.92-27.15L224.92-27.15Q229.57-27.15 232.17-23.78 234.77-20.4 234.77-13.85L234.77-13.85ZM228.77-15.3L228.77-15.65Q228.77-19.4 227.87-21.13 226.97-22.85 224.97-22.85L224.97-22.85Q223.12-22.85 222.15-21.18 221.17-19.5 220.97-15.3L220.97-15.3 228.77-15.3ZM246.42-27.15Q251.12-27.15 254.37-24.05L254.37-24.05 252.02-20.7Q250.62-21.7 249.37-22.2 248.12-22.7 246.82-22.7L246.82-22.7Q245.37-22.7 244.55-21.93 243.72-21.15 243.72-19.8L243.72-19.8Q243.72-18.45 244.65-17.63 245.57-16.8 248.37-15.7L248.37-15.7Q251.82-14.35 253.47-12.5 255.12-10.65 255.12-7.55L255.12-7.55Q255.12-3.7 252.42-1.48 249.72 0.75 245.57 0.75L245.57 0.75Q242.87 0.75 240.6-0.23 238.32-1.2 236.62-2.95L236.62-2.95 239.62-6.25Q242.42-3.8 245.32-3.8L245.32-3.8Q246.97-3.8 247.92-4.67 248.87-5.55 248.87-7.1L248.87-7.1Q248.87-8.25 248.47-8.97 248.07-9.7 247.07-10.33 246.07-10.95 244.07-11.7L244.07-11.7Q240.62-13.05 239.15-14.85 237.67-16.65 237.67-19.45L237.67-19.45Q237.67-22.8 240.05-24.98 242.42-27.15 246.42-27.15L246.42-27.15ZM258.97-26.45L265.12-26.45 265.12 0 258.97 0 258.97-26.45ZM262.02-39.65Q263.67-39.65 264.69-38.6 265.72-37.55 265.72-35.9L265.72-35.9Q265.72-34.3 264.69-33.25 263.67-32.2 262.02-32.2L262.02-32.2Q260.37-32.2 259.34-33.25 258.32-34.3 258.32-35.9L258.32-35.9Q258.32-37.55 259.34-38.6 260.37-39.65 262.02-39.65L262.02-39.65ZM288.77-29.85L290.32-25.1Q289.27-24.6 287.79-24.4 286.32-24.2 284.12-24.2L284.12-24.2Q286.22-23.2 287.24-21.53 288.27-19.85 288.27-17.4L288.27-17.4Q288.27-13.4 285.82-10.95 283.37-8.5 279.17-8.5L279.17-8.5Q277.92-8.5 276.62-8.9L276.62-8.9Q275.72-8.15 275.72-6.85L275.72-6.85Q275.72-5.85 276.27-5.35 276.82-4.85 278.32-4.85L278.32-4.85 281.12-4.85Q285.12-4.85 287.47-2.78 289.82-0.7 289.82 2.5L289.82 2.5Q289.82 6.3 286.89 8.58 283.97 10.85 278.57 10.85L278.57 10.85Q272.87 10.85 270.59 8.75 268.32 6.65 268.32 2.6L268.32 2.6 273.77 2.6Q273.77 4.75 274.77 5.65 275.77 6.55 278.62 6.55L278.62 6.55Q281.37 6.55 282.52 5.6 283.67 4.65 283.67 2.9L283.67 2.9Q283.67 1.2 282.72 0.4 281.77-0.4 279.77-0.4L279.77-0.4 277.87-0.4Q274.07-0.4 272.32-1.75 270.57-3.1 270.57-5.45L270.57-5.45Q270.57-6.8 271.29-8.03 272.02-9.25 273.27-10.2L273.27-10.2Q271.22-11.5 270.27-13.3 269.32-15.1 269.32-17.7L269.32-17.7Q269.32-22.05 271.92-24.58 274.52-27.1 278.92-27.1L278.92-27.1Q282.17-27.1 284.29-27.8 286.42-28.5 288.77-29.85L288.77-29.85ZM278.92-23Q277.17-23 276.27-21.75 275.37-20.5 275.37-17.8L275.37-17.8Q275.37-15.25 276.27-13.88 277.17-12.5 278.87-12.5L278.87-12.5Q280.62-12.5 281.47-13.73 282.32-14.95 282.32-17.85L282.32-17.85Q282.32-20.55 281.49-21.78 280.67-23 278.92-23L278.92-23ZM305.41-27.15Q308.26-27.15 309.91-25.1 311.56-23.05 311.56-19.6L311.56-19.6 311.56 0 305.41 0 305.41-18.9Q305.41-20.8 304.89-21.63 304.36-22.45 303.36-22.45L303.36-22.45Q301.26-22.45 299.21-18.5L299.21-18.5 299.21 0 293.06 0 293.06-26.45 298.41-26.45 298.86-23Q300.21-25.1 301.74-26.13 303.26-27.15 305.41-27.15L305.41-27.15ZM326.96-26.45L333.11-26.45 333.11 0 326.96 0 326.96-26.45ZM330.01-39.65Q331.66-39.65 332.68-38.6 333.71-37.55 333.71-35.9L333.71-35.9Q333.71-34.3 332.68-33.25 331.66-32.2 330.01-32.2L330.01-32.2Q328.36-32.2 327.33-33.25 326.31-34.3 326.31-35.9L326.31-35.9Q326.31-37.55 327.33-38.6 328.36-39.65 330.01-39.65L330.01-39.65ZM346.16-27.15Q350.86-27.15 354.11-24.05L354.11-24.05 351.76-20.7Q350.36-21.7 349.11-22.2 347.86-22.7 346.56-22.7L346.56-22.7Q345.11-22.7 344.28-21.93 343.46-21.15 343.46-19.8L343.46-19.8Q343.46-18.45 344.38-17.63 345.31-16.8 348.11-15.7L348.11-15.7Q351.56-14.35 353.21-12.5 354.86-10.65 354.86-7.55L354.86-7.55Q354.86-3.7 352.16-1.48 349.46 0.75 345.31 0.75L345.31 0.75Q342.61 0.75 340.33-0.23 338.06-1.2 336.36-2.95L336.36-2.95 339.36-6.25Q342.16-3.8 345.06-3.8L345.06-3.8Q346.71-3.8 347.66-4.67 348.61-5.55 348.61-7.1L348.61-7.1Q348.61-8.25 348.21-8.97 347.81-9.7 346.81-10.33 345.81-10.95 343.81-11.7L343.81-11.7Q340.36-13.05 338.88-14.85 337.41-16.65 337.41-19.45L337.41-19.45Q337.41-22.8 339.78-24.98 342.16-27.15 346.16-27.15L346.16-27.15ZM392.2-27.15Q394.85-27.15 396.45-25.1 398.05-23.05 398.05-19.6L398.05-19.6 398.05 0 392 0 392-18.95Q392-20.85 391.5-21.68 391-22.5 390.05-22.5L390.05-22.5Q388.1-22.5 386.3-18.8L386.3-18.8 386.3 0 380.3 0 380.3-18.95Q380.3-22.5 378.4-22.5L378.4-22.5Q376.35-22.5 374.6-18.8L374.6-18.8 374.6 0 368.55 0 368.55-26.45 373.9-26.45 374.3-23.05Q376.9-27.15 380.55-27.15L380.55-27.15Q382.4-27.15 383.75-26 385.1-24.85 385.8-22.75L385.8-22.75Q388.45-27.15 392.2-27.15L392.2-27.15ZM422.2-26.45L415.2 0.1Q413.9 4.9 411 7.65 408.1 10.4 403.25 10.85L403.25 10.85 402.55 6.5Q405.7 5.85 407.27 4.42 408.85 3 409.75 0L409.75 0 407.45 0 400.75-26.45 407-26.45 411.4-4.1 416.1-26.45 422.2-26.45ZM447.14-27.15Q451.04-27.15 453.04-23.58 455.04-20 455.04-13.3L455.04-13.3Q455.04-6.8 452.77-3.03 450.49 0.75 446.44 0.75L446.44 0.75Q443.24 0.75 441.09-2.1L441.09-2.1 441.09 10.15 434.94 10.85 434.94-26.45 440.39-26.45 440.64-23.25Q441.94-25.25 443.54-26.2 445.14-27.15 447.14-27.15L447.14-27.15ZM444.79-3.95Q446.69-3.95 447.69-6.13 448.69-8.3 448.69-13.25L448.69-13.25Q448.69-18.45 447.84-20.5 446.99-22.55 445.19-22.55L445.19-22.55Q442.89-22.55 441.09-19.25L441.09-19.25 441.09-6.45Q442.69-3.95 444.79-3.95L444.79-3.95ZM476.54-6.4Q476.54-5.1 476.89-4.48 477.24-3.85 478.04-3.45L478.04-3.45 476.79 0.65Q474.74 0.4 473.52-0.45 472.29-1.3 471.69-3.05L471.69-3.05Q469.39 0.75 465.24 0.75L465.24 0.75Q461.94 0.75 459.99-1.48 458.04-3.7 458.04-7.4L458.04-7.4Q458.04-11.7 460.72-13.95 463.39-16.2 468.49-16.2L468.49-16.2 470.54-16.2 470.54-18.05Q470.54-20.55 469.67-21.58 468.79-22.6 466.84-22.6L466.84-22.6Q464.49-22.6 460.99-21.3L460.99-21.3 459.59-25.3Q461.59-26.2 463.74-26.68 465.89-27.15 467.84-27.15L467.84-27.15Q476.54-27.15 476.54-18.35L476.54-18.35 476.54-6.4ZM466.89-3.7Q469.29-3.7 470.54-7L470.54-7 470.54-12.55 469.09-12.55Q466.54-12.55 465.37-11.4 464.19-10.25 464.19-7.85L464.19-7.85Q464.19-5.8 464.89-4.75 465.59-3.7 466.89-3.7L466.89-3.7ZM489.69-27.15Q494.39-27.15 497.64-24.05L497.64-24.05 495.29-20.7Q493.89-21.7 492.64-22.2 491.39-22.7 490.09-22.7L490.09-22.7Q488.64-22.7 487.81-21.93 486.99-21.15 486.99-19.8L486.99-19.8Q486.99-18.45 487.91-17.63 488.84-16.8 491.64-15.7L491.64-15.7Q495.09-14.35 496.74-12.5 498.39-10.65 498.39-7.55L498.39-7.55Q498.39-3.7 495.69-1.48 492.99 0.75 488.84 0.75L488.84 0.75Q486.14 0.75 483.86-0.23 481.59-1.2 479.89-2.95L479.89-2.95 482.89-6.25Q485.69-3.8 488.59-3.8L488.59-3.8Q490.24-3.8 491.19-4.67 492.14-5.55 492.14-7.1L492.14-7.1Q492.14-8.25 491.74-8.97 491.34-9.7 490.34-10.33 489.34-10.95 487.34-11.7L487.34-11.7Q483.89-13.05 482.41-14.85 480.94-16.65 480.94-19.45L480.94-19.45Q480.94-22.8 483.31-24.98 485.69-27.15 489.69-27.15L489.69-27.15ZM509.59-27.15Q514.29-27.15 517.54-24.05L517.54-24.05 515.19-20.7Q513.79-21.7 512.54-22.2 511.29-22.7 509.99-22.7L509.99-22.7Q508.54-22.7 507.71-21.93 506.89-21.15 506.89-19.8L506.89-19.8Q506.89-18.45 507.81-17.63 508.74-16.8 511.54-15.7L511.54-15.7Q514.99-14.35 516.64-12.5 518.29-10.65 518.29-7.55L518.29-7.55Q518.29-3.7 515.59-1.48 512.89 0.75 508.74 0.75L508.74 0.75Q506.04 0.75 503.76-0.23 501.49-1.2 499.79-2.95L499.79-2.95 502.79-6.25Q505.59-3.8 508.49-3.8L508.49-3.8Q510.14-3.8 511.09-4.67 512.04-5.55 512.04-7.1L512.04-7.1Q512.04-8.25 511.64-8.97 511.24-9.7 510.24-10.33 509.24-10.95 507.24-11.7L507.24-11.7Q503.79-13.05 502.31-14.85 500.84-16.65 500.84-19.45L500.84-19.45Q500.84-22.8 503.21-24.98 505.59-27.15 509.59-27.15L509.59-27.15ZM522.13-26.45L528.28-26.45 528.28 0 522.13 0 522.13-26.45ZM525.18-39.65Q526.83-39.65 527.86-38.6 528.88-37.55 528.88-35.9L528.88-35.9Q528.88-34.3 527.86-33.25 526.83-32.2 525.18-32.2L525.18-32.2Q523.53-32.2 522.51-33.25 521.48-34.3 521.48-35.9L521.48-35.9Q521.48-37.55 522.51-38.6 523.53-39.65 525.18-39.65L525.18-39.65ZM543.38-27.15Q548.38-27.15 551.15-23.65 553.93-20.15 553.93-13.25L553.93-13.25Q553.93-6.65 551.13-2.95 548.33 0.75 543.38 0.75L543.38 0.75Q538.43 0.75 535.63-2.88 532.83-6.5 532.83-13.25L532.83-13.25Q532.83-19.95 535.63-23.55 538.43-27.15 543.38-27.15L543.38-27.15ZM543.38-22.5Q541.23-22.5 540.23-20.38 539.23-18.25 539.23-13.25L539.23-13.25Q539.23-8.2 540.23-6.08 541.23-3.95 543.38-3.95L543.38-3.95Q545.53-3.95 546.53-6.08 547.53-8.2 547.53-13.25L547.53-13.25Q547.53-18.3 546.53-20.4 545.53-22.5 543.38-22.5L543.38-22.5ZM570.83-27.15Q573.68-27.15 575.33-25.1 576.98-23.05 576.98-19.6L576.98-19.6 576.98 0 570.83 0 570.83-18.9Q570.83-20.8 570.3-21.63 569.78-22.45 568.78-22.45L568.78-22.45Q566.68-22.45 564.63-18.5L564.63-18.5 564.63 0 558.48 0 558.48-26.45 563.83-26.45 564.28-23Q565.63-25.1 567.15-26.13 568.68-27.15 570.83-27.15L570.83-27.15Z" opacity="1" transform="matrix(1,0,0,1,0,0)" fill="#ebe6c8" class="slogan-text-1" data-fill-palette-color="secondary" id="text-1"></path></svg></g></svg></g></svg></g></svg></g><g transform="matrix(1,0,0,1,82.85283623757634,0)"><svg viewBox="0 0 229.81432752484724 126.52698931143279" height="126.52698931143279" width="229.81432752484724"><g><svg xmlns="http://www.w3.org/2000/svg" xmlns:xlink="http://www.w3.org/1999/xlink" version="1.1" x="0" y="0" viewBox="1.39 20.99 87.22 48.02000000000001" enable-background="new 0 0 90 90" xml:space="preserve" height="126.52698931143279" width="229.81432752484724" class="icon-icon-0" data-fill-palette-color="accent" id="icon-0"><rect x="1.39" y="45.49" width="23.52" height="23.52" fill="#bbecd1" data-fill-palette-color="accent"></rect><polygon points="43.294,33.24 25.263,44.51 2.604,44.51 20.638,33.24 " fill="#bbecd1" data-fill-palette-color="accent"></polygon><polygon points="64.108,44.727 25.89,68.617 25.89,45.273 64.108,21.382 " fill="#bbecd1" data-fill-palette-color="accent"></polygon><polygon points="64.728,45.49 87.394,45.49 69.36,56.76 46.704,56.76 " fill="#bbecd1" data-fill-palette-color="accent"></polygon><rect x="65.089" y="20.99" width="23.521" height="23.52" fill="#bbecd1" data-fill-palette-color="accent"></rect></svg></g></svg></g><g></g></svg></g><defs></defs></svg><rect width="395.5199999999999" height="228.956537949168" fill="none" stroke="none" visibility="hidden"></rect></g></svg></g></svg>