<svg xmlns="http://www.w3.org/2000/svg" version="1.1" xmlns:xlink="http://www.w3.org/1999/xlink" xmlns:svgjs="http://svgjs.dev/svgjs" width="1000" height="1000" viewBox="0 0 1000 1000"><rect width="1000" height="1000" fill="#331e6d"></rect><g transform="matrix(0.7,0,0,0.7,149.57575757575756,282.1265587044535)"><svg viewBox="0 0 396 247" data-background-color="#331e6d" preserveAspectRatio="xMidYMid meet" height="623" width="1000" xmlns="http://www.w3.org/2000/svg" xmlns:xlink="http://www.w3.org/1999/xlink"><g id="tight-bounds" transform="matrix(1,0,0,1,0.2400000000000091,-0.09999999999999432)"><svg viewBox="0 0 395.52 247.2" height="247.2" width="395.52"><g><svg></svg></g><g><svg viewBox="0 0 395.52 247.2" height="247.2" width="395.52"><g transform="matrix(1,0,0,1,112.83309205175601,47.215199999999996)"><svg viewBox="0 0 169.85381589648796 152.7696" height="152.7696" width="169.85381589648796"><g><svg viewBox="0 0 169.85381589648796 152.7696" height="152.7696" width="169.85381589648796"><g><svg viewBox="0 0 169.85381589648796 152.7696" height="152.7696" width="169.85381589648796"><g><svg viewBox="0 0 169.85381589648796 152.7696" height="152.7696" width="169.85381589648796"><g id="textblocktransform"><svg viewBox="0 0 169.85381589648796 152.7696" height="152.7696" width="169.85381589648796" id="textblock"><g><svg viewBox="0 0 169.85381589648796 152.7696" height="152.7696" width="169.85381589648796"><g transform="matrix(1,0,0,1,0,0)"><svg width="169.85381589648796" viewBox="0.5400000214576721 -26.420000076293945 29.369998931884766 26.420000076293945" height="152.7696" data-palette-color="#ffcf31"><path d="M18.63 0L11.38 0 3.39-21.68 0.54-22.12 0.54-26.42 13.35-26.42 13.35-22.14 10.57-21.66 14.55-9.67 15.16-7.62 15.31-7.62 15.99-9.67 20.36-21.63 17.11-22.14 17.11-26.42 29.91-26.42 29.91-22.12 26.98-21.63 18.63 0Z" opacity="1" transform="matrix(1,0,0,1,0,0)" fill="#ffcf31" class="undefined-text-0" data-fill-palette-color="primary" id="text-0"></path></svg></g></svg></g></svg></g></svg></g></svg></g></svg></g></svg></g><g><path d="M0 123.6c0-68.262 55.338-123.6 123.6-123.6 30.402 0 58.24 10.976 79.768 29.183l-11.147 0c-19.26-14.022-42.974-22.294-68.621-22.295-64.458 0-116.712 52.254-116.712 116.712 0 64.458 52.254 116.712 116.712 116.712 25.647 0 49.361-8.272 68.621-22.295l11.147 0c-21.528 18.206-49.366 29.183-79.768 29.183-68.262 0-123.6-55.338-123.6-123.6z" fill="#ffcf31" stroke="transparent" data-fill-palette-color="tertiary"></path></g></svg></g><defs></defs></svg><rect width="395.52" height="247.2" fill="none" stroke="none" visibility="hidden"></rect></g></svg></g></svg>